<svg xmlns="http://www.w3.org/2000/svg" width="1920" height="1260" viewBox="0 0 1920 1260">
  <defs>
    <style>
      .cls-1 {
        fill: #030303;
        fill-rule: evenodd;
      }
    </style>
  </defs>
  <path id="Color_Fill_1" data-name="Color Fill 1" class="cls-1" d="M0,0H1920V800l-131,4h-54c9.95-4.009,11.14-11.07,17-19,21.99-29.74,12.89-46.508,0-77q-3.495-10.5-7-21l-25-11-31-14-72,19c-1.24-21.185-3.18-40.261-4-60l-55-12-97-6-103,2-135,2-110,4-75,8q-1.5,42-3,84,6.495,49.5,13,99L0,797V0ZM1667,693c19.78,2.259,55.11,7.907,61,24q3,21.5,6,43l-42,45-90-4q6-20.5,12-41c5.77-6.244,12.21-10.432,16-19q5.505-16,11-32Q1654.005,701,1667,693Z"/>
</svg>
